<svg xmlns="http://www.w3.org/2000/svg" viewBox="0 0 14 14" fill="none" shape-rendering="crispEdges" width="200" height="200"><metadata xmlns:rdf="http://www.w3.org/1999/02/22-rdf-syntax-ns#" xmlns:xsi="http://www.w3.org/2001/XMLSchema-instance" xmlns:dc="http://purl.org/dc/elements/1.1/" xmlns:dcterms="http://purl.org/dc/terms/"><rdf:RDF><rdf:Description><dc:title>Pixel Art Neutral</dc:title><dc:creator>DiceBear</dc:creator><dc:source xsi:type="dcterms:URI">https://www.figma.com/community/file/1198754108850888330</dc:source><dcterms:license xsi:type="dcterms:URI">https://creativecommons.org/publicdomain/zero/1.0/</dcterms:license><dc:rights>„Pixel Art Neutral” (https://www.figma.com/community/file/1198754108850888330) by „DiceBear”, licensed under „CC0 1.0” (https://creativecommons.org/publicdomain/zero/1.0/)</dc:rights></rdf:Description></rdf:RDF></metadata><mask id="viewboxMask"><rect width="14" height="14" rx="0" ry="0" x="0" y="0" fill="#fff" /></mask><g mask="url(#viewboxMask)"><rect fill="#ffdbac" width="14" height="14" x="0" y="0" /><g transform="translate(-1 -2)"><path fill="#fff" d="M4 5h3v3H4zM9 5h3v3H9z"/><path fill="#76778b" d="M10 6h1v1h-1zM5 6h1v1H5z"/></g><g transform="translate(-1 -2)"><path fill="#5f705c" d="M2 5h12v1H2zM3 7h10v1H3zM3 6h1v1H3zM12 6h1v1h-1z"/><path fill="#000" fill-opacity=".3" d="M4 6h8v1H4z"/><path fill="#fff" fill-opacity=".2" d="M2 5h1v1H2zM13 5h1v1h-1z"/><path fill="#000" fill-opacity=".3" d="M7 6h2v1H7z"/></g><g transform="translate(-1)"><path d="M7 9v1h1v1h1V9H7Z" fill="#c98276"/></g></g></svg>