<svg xmlns="http://www.w3.org/2000/svg" viewBox="0 0 14 14" fill="none" shape-rendering="crispEdges" width="200" height="200"><metadata xmlns:rdf="http://www.w3.org/1999/02/22-rdf-syntax-ns#" xmlns:xsi="http://www.w3.org/2001/XMLSchema-instance" xmlns:dc="http://purl.org/dc/elements/1.1/" xmlns:dcterms="http://purl.org/dc/terms/"><rdf:RDF><rdf:Description><dc:title>Pixel Art Neutral</dc:title><dc:creator>DiceBear</dc:creator><dc:source xsi:type="dcterms:URI">https://www.figma.com/community/file/1198754108850888330</dc:source><dcterms:license xsi:type="dcterms:URI">https://creativecommons.org/publicdomain/zero/1.0/</dcterms:license><dc:rights>„Pixel Art Neutral” (https://www.figma.com/community/file/1198754108850888330) by „DiceBear”, licensed under „CC0 1.0” (https://creativecommons.org/publicdomain/zero/1.0/)</dc:rights></rdf:Description></rdf:RDF></metadata><mask id="viewboxMask"><rect width="14" height="14" rx="0" ry="0" x="0" y="0" fill="#fff" /></mask><g mask="url(#viewboxMask)"><rect fill="#f5cfa0" width="14" height="14" x="0" y="0" /><g transform="translate(-1 -2)"><path fill="#fff" d="M4 5h3v2H4z"/><path fill="#76778b" d="M5 6h1v1H5z"/><path fill="#fff" d="M9 5h3v2H9z"/><path fill="#76778b" d="M10 6h1v1h-1z"/></g><g transform="translate(-1 -2)"><path fill="#fff" fill-opacity=".3" d="M4 5h3v3H4zM9 5h3v3H9z"/><path fill="#323232" d="M3 5h1v1H3zM7 5h2v1H7zM12 5h1v1h-1z"/></g><g transform="translate(-1)"><path d="M9 9v1H8v1h2V9H9Z" fill="#d29985"/></g></g></svg>