<svg xmlns="http://www.w3.org/2000/svg" viewBox="0 0 210 210" fill="none" shape-rendering="auto" width="200" height="200"><metadata xmlns:rdf="http://www.w3.org/1999/02/22-rdf-syntax-ns#" xmlns:xsi="http://www.w3.org/2001/XMLSchema-instance" xmlns:dc="http://purl.org/dc/elements/1.1/" xmlns:dcterms="http://purl.org/dc/terms/"><rdf:RDF><rdf:Description><dc:title>Face Generator</dc:title><dc:creator>The Visual Team</dc:creator><dc:source xsi:type="dcterms:URI">https://www.figma.com/community/file/986078800058673824</dc:source><dcterms:license xsi:type="dcterms:URI">https://creativecommons.org/licenses/by/4.0/</dcterms:license><dc:rights>Remix of „Face Generator” (https://www.figma.com/community/file/986078800058673824) by „The Visual Team”, licensed under „CC BY 4.0” (https://creativecommons.org/licenses/by/4.0/)</dc:rights></rdf:Description></rdf:RDF></metadata><mask id="viewboxMask"><rect width="210" height="210" rx="0" ry="0" x="0" y="0" fill="#fff" /></mask><g mask="url(#viewboxMask)"><rect fill="#c07f50" width="210" height="210" x="0" y="0" /><g transform="translate(86.8 138.9) scale(.71856)"><path d="M-24 27.7a17 17 0 0 1 17-17h65.7a17 17 0 0 1 0 34H-7a17 17 0 0 1-17-17Z" fill="#DE8383"/><path fill-rule="evenodd" clip-rule="evenodd" d="M75.6 26h-99.5A17 17 0 0 1-7 9.7h65.6a17 17 0 0 1 17 16.3Z" fill="#F9F9F9"/></g><g transform="translate(2 11) scale(.71856)"><path d="M74 93.1h40.4v11H74zM74 60h40.4v11H74zM173.3 93.1h40.4v11h-40.4zM173.3 60h40.4v11h-40.4z" fill="#000"/></g><g transform="translate(15 89.2) scale(.71856)"><g fill="#FFC6C6"><rect x="11" y="16" width="56.3" height="43.4" rx="21.7"/><rect x="191" y="16" width="56.3" height="43.4" rx="21.7"/></g></g><g transform="translate(80.3 79.8) scale(.71856)"><path d="M5.6 34.4a17 17 0 0 0 16.3 21.4h33.7A16.9 16.9 0 0 0 72 34.4C70 41.6 63.4 47 55.6 47H22c-7.8 0-14.4-5.3-16.3-12.5Z" fill="#000" fill-opacity=".2"/></g></g></svg>