<svg xmlns="http://www.w3.org/2000/svg" viewBox="0 0 16 16" fill="none" shape-rendering="crispEdges" width="200" height="200"><metadata xmlns:rdf="http://www.w3.org/1999/02/22-rdf-syntax-ns#" xmlns:xsi="http://www.w3.org/2001/XMLSchema-instance" xmlns:dc="http://purl.org/dc/elements/1.1/" xmlns:dcterms="http://purl.org/dc/terms/"><rdf:RDF><rdf:Description><dc:title>Pixel Art</dc:title><dc:creator>DiceBear</dc:creator><dc:source xsi:type="dcterms:URI">https://www.figma.com/community/file/1198754108850888330</dc:source><dcterms:license xsi:type="dcterms:URI">https://creativecommons.org/publicdomain/zero/1.0/</dcterms:license><dc:rights>„Pixel Art” (https://www.figma.com/community/file/1198754108850888330) by „DiceBear”, licensed under „CC0 1.0” (https://creativecommons.org/publicdomain/zero/1.0/)</dc:rights></rdf:Description></rdf:RDF></metadata><mask id="viewboxMask"><rect width="16" height="16" rx="0" ry="0" x="0" y="0" fill="#fff" /></mask><g mask="url(#viewboxMask)"><path d="M4 2h8v1h1v3h1v2h-1v3h-1v1H9v1h4v1h1v2H2v-2h1v-1h4v-1H4v-1H3V8H2V6h1V3h1V2Z" fill="#eac393"/><path d="M4 2h8v1h1v3h1v2h-1v3h-1v1H4v-1H3V8H2V6h1V3h1V2Z" fill="#fff" fill-opacity=".1"/><path d="M7 12h2v1h4v1h1v2H2v-2h1v-1h4v-1Z" fill="#5bc0de"/><path fill="#000" fill-opacity=".3" d="M7 12h2v1H7z"/><g fill-rule="evenodd" clip-rule="evenodd"><path d="M5 6h1v2H4V7h1V6Zm5 0h1v2H9V7h1V6Z" fill="#fff"/><path d="M6 6v1H5v1h2V6H6Zm5 0v1h-1v1h2V6h-1Z" fill="#76778b"/><path d="M6 6v1h1V6H6ZM5 7v1h1V7H5Zm6-1v1h1V6h-1Zm-1 1v1h1V7h-1Z" fill="#fff" fill-opacity=".5"/></g><path d="M7 11h2v-1H7v1ZM7 10V9H6v1h1ZM9 10V9h1v1H9Z" fill="#d29985"/><g fill="#bd1700"><path d="M5 0h1v1H5V0Z"/><path d="M2 3h1V1h2v1h1V1h1v1h1V1H7V0h2v2h1V1h1v1h1V1h1v1h1v1h-1v1H4v1H3v1H2V5H1V4h1V3Z"/><path d="M2 3H1V2h1v1ZM1 6H0V5h1v1ZM2 8H1V6h1v2ZM2 8h1v2H2V8Z"/><path fill-rule="evenodd" clip-rule="evenodd" d="M14 4h-1v2h2V5h1V4h-1V3h-1v1Zm0 0h1v1h-1V4Z"/><path d="M12 1h-1V0h1v1ZM13 8h1v2h-1V8Z"/></g></g></svg>