<svg xmlns="http://www.w3.org/2000/svg" viewBox="0 0 128 128" fill="none" shape-rendering="auto" width="200" height="200"><metadata xmlns:rdf="http://www.w3.org/1999/02/22-rdf-syntax-ns#" xmlns:xsi="http://www.w3.org/2001/XMLSchema-instance" xmlns:dc="http://purl.org/dc/elements/1.1/" xmlns:dcterms="http://purl.org/dc/terms/"><rdf:RDF><rdf:Description><dc:title>Croodles - Doodle your face</dc:title><dc:creator>vijay verma</dc:creator><dc:source xsi:type="dcterms:URI">https://www.figma.com/community/file/966199982810283152</dc:source><dcterms:license xsi:type="dcterms:URI">https://creativecommons.org/licenses/by/4.0/</dcterms:license><dc:rights>Remix of „Croodles - Doodle your face” (https://www.figma.com/community/file/966199982810283152) by „vijay verma”, licensed under „CC BY 4.0” (https://creativecommons.org/licenses/by/4.0/)</dc:rights></rdf:Description></rdf:RDF></metadata><mask id="viewboxMask"><rect width="128" height="128" rx="0" ry="0" x="0" y="0" fill="#fff" /></mask><g mask="url(#viewboxMask)"><g transform="translate(7 4)"><g stroke="#000" stroke-width="3" stroke-linecap="round" stroke-linejoin="round"><path d="M25.5 18.2c1.7-1.3 6.1-2.6 11.3-1.9 4.5.6 6.4 2.3 7.7 4.3M73 20c2-2.8 5.8-3.3 8.2-3.4 2.4-.2 5 0 7.2.6M4 20.6l13.7 8.5M48.2 33A31.5 31.5 0 0 1 68.7 31M96.9 28.8c2.5-1.3 10.6-8.8 13.1-10.6M18.1 29.7c-.3 3.7-.4 13.1 4.4 16.6 4.7 3.5 23.5-.3 25.2-1 1.7-.5 1.7-7.7-.9-14.3-2.1-5.5-20.5-3.7-28-2.3"/><path d="M70.5 28c6-2.7 22-1 25 0 3.7 1 4.1 10.3 3.8 13.7C98.9 45 78.8 45 74 44.9c-3.7-.1-4.9-11.6-4-16.5M33.4 32.3c-.4.2-1 1-.8 1.9.4 1 3.4 2.5 3.5.8.1-1.7-.4-2.3-1.2-1.6"/><path d="M81.6 31.2c-.6.6-1.7 1.8-1 2.3 1 .7 4.3 2.3 4 0-.2-1.8-1.1-1.7-1.5-1.4l-.8.8"/></g></g><g transform="translate(47 46)"><path d="M20.8 8c2.7 8 7.6 25.3 5.8 29.4-2.1 5-5.4-2.3-5.4 3.5-1 2.8-3.8 3.2-5.1-1.6-1.3-4.7-5.2 3.5-6.5 1.6-3.6-1.6-.7-7.1 1.2-8.9" stroke="#000" stroke-width="3" stroke-linecap="round" stroke-linejoin="round"/></g><g transform="translate(30 93)"><g stroke="#000" stroke-width="3" stroke-linecap="round" stroke-linejoin="round"><path d="M22.2 21.5c-.5.5-3-7.1-4.1-11l7.4 1.2-3.3 9.8ZM49.4 20.4c-.7.3-3-6-4.3-10l6-2c-1 3.1-.6 11.6-1.7 12Z"/><path d="M13 4.7c3 6.2 12.4 7.7 24 6.4C47.4 10 53.4 6.7 56.4 3"/></g></g></g></svg>