<svg xmlns="http://www.w3.org/2000/svg" viewBox="0 0 180 180" fill="none" shape-rendering="auto" width="200" height="200"><metadata xmlns:rdf="http://www.w3.org/1999/02/22-rdf-syntax-ns#" xmlns:xsi="http://www.w3.org/2001/XMLSchema-instance" xmlns:dc="http://purl.org/dc/elements/1.1/" xmlns:dcterms="http://purl.org/dc/terms/"><rdf:RDF><rdf:Description><dc:title>Bottts</dc:title><dc:creator>Pablo Stanley</dc:creator><dc:source xsi:type="dcterms:URI">https://bottts.com/</dc:source><dcterms:license xsi:type="dcterms:URI">https://bottts.com/</dcterms:license><dc:rights>Remix of „Bottts” (https://bottts.com/) by „Pablo Stanley”, licensed under „Free for personal and commercial use” (https://bottts.com/)</dc:rights></rdf:Description></rdf:RDF></metadata><mask id="viewboxMask"><rect width="180" height="180" rx="0" ry="0" x="0" y="0" fill="#fff" /></mask><g mask="url(#viewboxMask)"><g transform="translate(0 66)"><mask id="sidesSquare-a" style="mask-type:luminance" maskUnits="userSpaceOnUse" x="14" y="16" width="152" height="44"><g fill="#fff"><rect x="14" y="16" width="36" height="44" rx="9"/><rect x="130" y="16" width="36" height="44" rx="9"/></g></mask><g mask="url(#sidesSquare-a)"><path d="M0 0h180v76H0V0Z" fill="#757575"/><path d="M0 0h180v76H0V0Z" fill="#fff" fill-opacity=".3"/><path fill="#000" fill-opacity=".1" d="M0 38h180v38H0z"/></g></g><g transform="translate(41)"><mask id="topRadar-a" style="mask-type:luminance" maskUnits="userSpaceOnUse" x="37" y="0" width="36" height="53"><g fill="#fff"><path fill-rule="evenodd" clip-rule="evenodd" d="M43.8.11A20 20 0 1 0 72.08 28.4"/><circle cx="67.13" cy="5.06" r="4" transform="rotate(45 67.13 5.06)"/><path transform="rotate(45 64.3 6.48)" d="M64.31 6.48h2v26h-2z"/><path d="M47.94 28.11h4v24h-4z"/></g></mask><g mask="url(#topRadar-a)"><path d="M0 0h100v52H0V0Z" fill="#90A4AE"/><path d="M0 0h100v52H0V0Z" fill="#fff" fill-opacity=".3"/><path fill-rule="evenodd" clip-rule="evenodd" d="M43.8.11A20 20 0 1 0 72.08 28.4" fill="#fff" fill-opacity=".2"/><circle cx="67.13" cy="7.41" r="5.66" transform="rotate(45 67.13 7.4)" fill="#fff" fill-opacity=".8"/></g></g><g transform="translate(25 44)"><mask id="faceSquare01-a" style="mask-type:luminance" maskUnits="userSpaceOnUse" x="0" y="0" width="130" height="120"><rect width="130" height="120" rx="18" fill="#fff"/></mask><g mask="url(#faceSquare01-a)"><path d="M-2-2h134v124H-2V-2Z" fill="#757575"/><g transform="translate(-1 -1)"></g></g></g><g transform="translate(52 124)"><g fill="#000" fill-opacity=".6"><rect x="12" y="12" width="4" height="8" rx="2"/><rect x="36" y="12" width="4" height="8" rx="2"/><rect x="24" y="12" width="4" height="8" rx="2"/><rect x="48" y="12" width="4" height="8" rx="2"/><rect x="60" y="12" width="4" height="8" rx="2"/></g></g><g transform="translate(38 76)"><g fill="#fff"><circle cx="21" cy="30" r="15" fill-opacity=".1"/><circle cx="83" cy="30" r="15" fill-opacity=".1"/><circle cx="21" cy="30" r="12" fill-opacity=".1"/><circle cx="83" cy="30" r="12" fill-opacity=".1"/><circle cx="21" cy="30" r="6" fill-opacity=".8"/><circle cx="83" cy="30" r="6" fill-opacity=".8"/><circle cx="21" cy="30" r="3" fill-opacity=".8"/><circle cx="83" cy="30" r="3" fill-opacity=".8"/></g></g></g></svg>